<?xml version="1.0" encoding="utf-8"?>
<!-- Generator: Adobe Illustrator 24.0.0, SVG Export Plug-In . SVG Version: 6.00 Build 0)  -->
<svg version="1.1" id="Calque_1" xmlns="http://www.w3.org/2000/svg" xmlns:xlink="http://www.w3.org/1999/xlink" x="0px" y="0px"
	 viewBox="0 0 480 480" style="enable-background:new 0 0 480 480;" xml:space="preserve">
<style type="text/css">
	.st0{fill:#808080;}
	.st1{fill:none;stroke:#808080;stroke-width:8;stroke-linecap:round;stroke-miterlimit:10;}
</style>
<g id="Calque_2_1_">
	<g>
		<path class="st0" d="M431,225c0.3-24.1-4.2-48.3-13.3-70.7c-9-22.4-22.5-43.1-39.5-60.5s-37.5-31.4-59.9-41s-46.8-14.7-71.3-15
			v-9.7c25.8-0.3,51.6,4.6,75.6,14.2c24,9.7,46.1,24.1,64.7,42.3c18.5,18.2,33.5,40.1,43.8,64.1s15.7,50.1,15.9,76.3L431,225
			L431,225z"/>
	</g>
	<g>
		<path class="st0" d="M247,405.3c23.6,0.3,47.3-4,69.4-12.9c22-8.8,42.4-22,59.4-38.6c17.1-16.6,30.9-36.7,40.4-58.7
			s14.5-45.9,14.8-70.1h16c0.3,26.2-4.5,52.5-14.4,76.9c-9.8,24.4-24.5,46.9-42.9,65.8s-40.7,34.2-65.1,44.6
			c-24.4,10.5-51,16-77.6,16.3L247,405.3L247,405.3z"/>
	</g>
	<g>
		<path class="st0" d="M47,225c0.3-26.2,5.7-52.3,15.9-76.3s25.2-45.9,43.8-64.1s40.6-32.7,64.7-42.3c24-9.7,49.9-14.5,75.7-14.2
			v9.7c-24.5,0.3-48.9,5.3-71.3,15c-22.4,9.6-42.9,23.6-59.9,41s-30.5,38-39.5,60.5C67.2,176.7,62.8,200.9,63,225H47z"/>
	</g>
	<g>
		<path class="st0" d="M247,428.7c-26.6-0.3-53.2-5.9-77.6-16.3s-46.7-25.7-65.1-44.6S71.2,326.4,61.4,302
			c-9.9-24.5-14.7-50.8-14.4-77h16c0.3,24.1,5.4,48,14.8,70.1c9.4,22,23.3,42.1,40.4,58.7s37.4,29.9,59.4,38.6
			c22,8.8,45.7,13.1,69.4,12.9V428.7z"/>
	</g>
</g>
<g id="Calque_1_1_">
	<circle class="st0" cx="248" cy="274" r="7"/>
	<path class="st1" d="M247,99.9c-29.2,0-102.6,194.8-95.5,207.8s95.5,12.5,95.5,12.5"/>
	<g>
		<path class="st0" d="M251.5,160.5c1.8,0.9,2.9,1.7,3.9,2.6c1,0.9,1.7,1.7,2.2,2.6c0.5,0.9,0.8,1.7,1,2.6c0.2,0.9,0.1,1.7,0.1,2.6
			c0,3.4-0.1,6.9-0.2,10.3c-0.2,6.9-0.6,13.8-1.1,20.6c-0.6,6.9-1.3,13.7-2.3,20.6c-1,6.9-2.2,13.7-4,20.6c-0.6,2.2-2.8,3.5-5,2.9
			c-1.5-0.4-2.6-1.6-3-3c-1.7-6.9-2.8-13.8-3.7-20.6c-0.9-6.9-1.6-13.8-2.1-20.6c-0.4-6.9-0.8-13.8-0.9-20.6
			c-0.1-3.4-0.1-6.9-0.1-10.3c0-0.9-0.1-1.7,0.1-2.6c0.2-0.9,0.5-1.7,1-2.6c0.5-0.9,1.3-1.7,2.2-2.6c1-0.9,2.1-1.7,3.9-2.6
			C246.1,159.2,249.1,159.4,251.5,160.5z"/>
	</g>
	<path class="st1" d="M247,99.9c29.2,0,102.6,194.8,95.5,207.8S247,320.2,247,320.2"/>
</g>
</svg>
